<?xml version="1.0" encoding="UTF-8" standalone="no"?>
<!-- Created with Inkscape (http://www.inkscape.org/) -->

<svg
   xmlns:svg="http://www.w3.org/2000/svg"
   xmlns="http://www.w3.org/2000/svg"
   version="1.1"
   width="744.09448"
   height="1052.3622"
   id="svg2816">
  <defs
     id="defs2818" />
  <g
     id="layer6"
     style="display:inline" />
  <g
     id="layer5"
     style="display:inline" />
  <g
     id="layer4"
     style="display:inline">
    <path
       d="M 350.72495,418.79449 A 9.1923885,9.1923885 0 0 1 332.3467,419.1407"
       transform="matrix(-0.22530814,0,0,-0.29251201,244.2974,805.69324)"
       id="path3709-0"
       style="fill:#000000;fill-opacity:1;stroke:#000000;stroke-width:5;stroke-miterlimit:4;stroke-opacity:1;stroke-dasharray:none;display:inline" />
    <path
       d="M 350.72495,418.79449 A 9.1923885,9.1923885 0 0 1 332.3467,419.1407"
       transform="matrix(-0.22530814,0,0,-0.29251201,213.1241,813.81682)"
       id="path3709-9-3"
       style="fill:#000000;fill-opacity:1;stroke:#000000;stroke-width:5;stroke-miterlimit:4;stroke-opacity:1;stroke-dasharray:none;display:inline" />
    <path
       d="m 138.10679,689.96996 c 0.25723,-0.36662 0.44335,-0.27622 0.82864,-0.27622 0.0921,0 0.19387,0.0412 0.27622,0 0.11646,-0.0582 0.15975,-0.21798 0.27621,-0.27621 0.0841,-0.042 0.70425,0 0.82864,0 0.0921,0 0.18415,0 0.27622,0 0.0921,0 0.21111,0.0651 0.27621,0 0.0651,-0.0651 -0.0651,-0.21111 0,-0.27622 0.0565,-0.0565 0.71912,0.0548 0.82864,0 0.11646,-0.0582 0.15975,-0.21798 0.27621,-0.27621 0.16773,-0.0839 1.48956,0.0839 1.65729,0 0.11646,-0.0582 0.15975,-0.21798 0.27621,-0.27621 0.22097,-0.11049 0.60767,0.11048 0.82864,0 0.11646,-0.0582 0.15975,-0.21799 0.27621,-0.27622 0.17361,-0.0868 0.93125,0.0868 1.10486,0 0.11646,-0.0582 0.15975,-0.21798 0.27621,-0.27621 0.22097,-0.11049 0.60767,0.11049 0.82864,0 0.11646,-0.0582 0.15975,-0.21798 0.27622,-0.27621 0.0714,-0.0357 1.4615,0 1.65728,0 0.10143,0 1.09374,0.0111 1.10485,0 0.0651,-0.0651 -0.0651,-0.21111 0,-0.27622 0.13021,-0.13021 0.42222,0.13021 0.55243,0 0.0651,-0.0651 -0.0651,-0.21111 0,-0.27621 0.0665,-0.0665 1.03839,0.0665 1.10485,0 0.0651,-0.0651 -0.0651,-0.21111 0,-0.27621 0.0855,-0.0855 1.29554,0.0855 1.38107,0 0.0651,-0.0651 -0.0651,-0.21111 0,-0.27622 0.13021,-0.13021 0.38773,0.0824 0.55243,0 0.11646,-0.0582 0.15975,-0.21798 0.27621,-0.27621 0.0823,-0.0412 0.19386,0.0412 0.27622,0 0.11646,-0.0582 0.15975,-0.21798 0.27621,-0.27621 0.1647,-0.0824 0.38772,0.0824 0.55243,0 0.11646,-0.0582 0.15975,-0.21799 0.27621,-0.27622 0.1647,-0.0823 0.42222,0.13021 0.55243,0 0.0111,-0.0111 0,-1.00342 0,-1.10485 0,-0.46036 0,-0.92071 0,-1.38107 0,-0.0921 0,-0.18414 0,-0.27621 0,-0.0921 0.0412,-0.19387 0,-0.27622 -0.0582,-0.11646 -0.21799,-0.15975 -0.27622,-0.27621 -0.0823,-0.1647 0.0823,-0.38773 0,-0.55243 -0.0582,-0.11646 -0.21798,-0.15975 -0.27621,-0.27621 -0.0823,-0.1647 0.13021,-0.42222 0,-0.55243 -0.0651,-0.0651 -0.21111,0.0651 -0.27621,0 -0.0651,-0.0651 0,-0.18414 0,-0.27621 0,-0.10144 -0.0111,-1.09374 0,-1.10486 0.0651,-0.0651 0.21111,0.0651 0.27621,0 0.0651,-0.0651 -0.0651,-0.21111 0,-0.27621 0.0111,-0.0111 1.00342,0 1.10485,0 1.65729,0 3.31457,0 4.97185,0 0.067,0 0.81976,-0.009 0.82864,0 0.0651,0.0651 -0.0651,0.21111 0,0.27621 0.097,0.097 1.19028,-0.0954 1.38107,0 0.11646,0.0582 0.15975,0.21799 0.27621,0.27622 0.10952,0.0548 0.77217,-0.0565 0.82864,0 0.0651,0.0651 -0.0651,0.21111 0,0.27621 0.0565,0.0565 0.71913,-0.0548 0.82864,0 0.11646,0.0582 0.15975,0.21798 0.27622,0.27621 0.0824,0.0412 0.21111,-0.0651 0.27621,0 0.0651,0.0651 -0.0651,0.21111 0,0.27622 0.27248,0.27248 0.55243,-0.56599 0.55243,0.27621"
       id="path3739"
       style="fill:none;stroke:#865300;stroke-width:1px;stroke-linecap:butt;stroke-linejoin:miter;stroke-opacity:1" />
    <path
       d="M 350.72495,418.79449 A 9.1923885,9.1923885 0 0 1 332.3467,419.1407"
       transform="matrix(-0.22530814,0,0,-0.29251201,305.37944,838.67605)"
       id="path3709-2"
       style="fill:#000000;fill-opacity:1;stroke:#000000;stroke-width:5;stroke-miterlimit:4;stroke-opacity:1;stroke-dasharray:none;display:inline" />
    <path
       d="M 350.72495,418.79449 A 9.1923885,9.1923885 0 0 1 332.3467,419.1407"
       transform="matrix(-0.22530814,0,0,-0.29251201,272.51002,827.07506)"
       id="path3709-90"
       style="fill:#000000;fill-opacity:1;stroke:#000000;stroke-width:5;stroke-miterlimit:4;stroke-opacity:1;stroke-dasharray:none;display:inline" />
    <path
       d="m 195.83543,703.22821 c 0.0921,0 0.19387,-0.0412 0.27622,0 0.11646,0.0582 0.15975,0.21798 0.27621,0.27621 0.0824,0.0412 0.18887,-0.0291 0.27621,0 0.19532,0.0651 0.35712,0.21111 0.55243,0.27621 0.33104,0.11035 0.22139,-0.11034 0.55243,0 0.19531,0.0651 0.35711,0.21111 0.55243,0.27622 0.0873,0.0291 0.18414,0 0.27621,0 0.18414,0.0921 0.35711,0.21111 0.55243,0.27621 0.0873,0.0291 0.19386,-0.0412 0.27621,0 0.11646,0.0582 0.15975,0.21798 0.27621,0.27622 0.16471,0.0824 0.38773,-0.0824 0.55243,0 0.11646,0.0582 0.15975,0.21798 0.27621,0.27621 0.0824,0.0412 0.19387,-0.0412 0.27622,0 0.11646,0.0582 0.15975,0.21798 0.27621,0.27621 0.0823,0.0412 0.19386,-0.0412 0.27622,0 0.11646,0.0582 0.15975,0.21799 0.27621,0.27622 0.1647,0.0824 0.38772,-0.0824 0.55243,0 0.23292,0.11646 0.3195,0.43596 0.55242,0.55242 0.16471,0.0824 0.42222,-0.1302 0.55243,0 0.0651,0.0651 -0.0651,0.21111 0,0.27622 0.0651,0.0651 0.19386,-0.0412 0.27621,0 0.11647,0.0582 0.15976,0.21798 0.27622,0.27621 0.0823,0.0412 0.21111,-0.0651 0.27621,0 0.0651,0.0651 0,0.18414 0,0.27621 0,0.19212 0.0499,1.28118 0,1.38107 -0.0582,0.11646 -0.21798,0.15975 -0.27621,0.27622 -0.0548,0.10951 0.0565,0.77217 0,0.82864 -0.0651,0.0651 -0.21111,-0.0651 -0.27622,0 -0.0651,0.0651 0.0412,0.19386 0,0.27621 -0.0582,0.11646 -0.21798,0.15975 -0.27621,0.27621 -0.0363,0.0726 0,0.96042 0,1.10486 0,0.067 -0.009,0.81976 0,0.82864 0.13021,0.13021 0.42222,-0.13021 0.55243,0 0.0651,0.0651 -0.0651,0.21111 0,0.27621 0.009,0.009 0.76165,0 0.82864,0 0.73657,0 -0.0921,-0.0921 0.27621,0.27622 0.097,0.0969 1.19028,-0.0954 1.38107,0 0.11646,0.0582 0.15975,0.21798 0.27621,0.27621 0.0823,0.0412 0.21111,-0.0651 0.27622,0 0.0651,0.0651 -0.0651,0.21111 0,0.27621 0.0651,0.0651 0.18414,0 0.27621,0 0.0921,0 0.18414,0 0.27621,0 0.6445,0 1.289,0 1.9335,0 0.0921,0 0.21111,0.0651 0.27621,0 0.13021,-0.13021 -0.0823,-0.38772 0,-0.55242 0.0582,-0.11647 0.18415,-0.18415 0.27622,-0.27622 0.0921,-0.0921 0.15975,-0.21798 0.27621,-0.27621 0.0841,-0.042 0.70425,0 0.82864,0 0.73657,0 1.47314,0 2.20971,0 0.067,0 0.81976,0.009 0.82864,0 0.0651,-0.0651 -0.0651,-0.21111 0,-0.27621 0.0651,-0.0651 0.18414,0 0.27621,0 0.0921,0 0.18415,0 0.27622,0 0.82864,0 1.65728,0 2.48592,0 0.067,0 0.81976,-0.009 0.82864,0 0.0111,0.0111 0,1.00341 0,1.10485 0,1.04347 0,-1.22762 0,0.55243 0,0.0921 0,0.18414 0,0.27621 0,0.0921 -0.0651,0.21111 0,0.27621 0.0651,0.0651 0.21111,-0.0651 0.27621,0 0.13811,0.13811 -0.1381,0.69054 0,0.82864 0.0651,0.0651 0.21111,-0.0651 0.27622,0 0.0651,0.0651 -0.0412,0.19387 0,0.27622 0.0582,0.11646 0.21798,0.15975 0.27621,0.27621 0.0412,0.0823 -0.0651,0.21111 0,0.27622 0.0651,0.0651 0.21111,-0.0651 0.27622,0 0.0651,0.0651 0,0.18414 0,0.27621 0.0921,0 0.2111,-0.0651 0.27621,0 0.0651,0.0651 -0.0651,0.21111 0,0.27621 0.0565,0.0565 0.71912,-0.0548 0.82864,0 1.14953,0.57477 -0.29528,-0.0191 0.27621,0.55243 0.0651,0.0651 0.21111,-0.0651 0.27622,0 0.0651,0.0651 -0.0651,0.21111 0,0.27621 0.0651,0.0651 0.18414,0 0.27621,0 0,0.0921 -0.0651,0.21111 0,0.27622 0.0651,0.0651 0.18414,0 0.27621,0 0.0921,0 0.18415,0 0.27622,0 0.73657,0 1.47314,0 2.20971,0 0.14443,0 1.03222,0.0363 1.10485,0 0.23292,-0.11646 0.3195,-0.43597 0.55243,-0.55243 0.0824,-0.0412 0.21111,0.0651 0.27621,0 0.0651,-0.0651 -0.0651,-0.21111 0,-0.27621 0.0651,-0.0651 0.21111,0.0651 0.27621,0 0.0651,-0.0651 -0.0651,-0.21111 0,-0.27622 0.0651,-0.0651 0.21111,0.0651 0.27622,0 0.0651,-0.0651 -0.0651,-0.21111 0,-0.27621 0.13021,-0.13021 0.42222,0.13021 0.55243,0 0.0651,-0.0651 -0.0651,-0.21111 0,-0.27621 0.0651,-0.0651 0.21111,0.0651 0.27621,0 0.0651,-0.0651 -0.0651,-0.21111 0,-0.27622 0.0651,-0.0651 0.21111,0.0651 0.27621,0 0.0651,-0.0651 -0.0651,-0.21111 0,-0.27621 0.0651,-0.0651 0.18415,0 0.27622,0 0.0921,0 0.18414,0 0.27621,0"
       id="path3947"
       style="fill:none;stroke:#845900;stroke-width:1px;stroke-linecap:butt;stroke-linejoin:miter;stroke-opacity:1" />
    <path
       d="m 220.14223,701.29471 c -0.0966,0.0192 -0.7937,-0.0349 -0.82864,0 -0.5715,0.5715 0.87332,-0.0223 -0.27621,0.55243 -0.0824,0.0412 -0.19387,-0.0412 -0.27622,0 -0.6287,0.6287 0.0572,0.073 -0.55243,0.27621 -2.00073,0.66691 0.43548,-0.0796 -0.82864,0.55243 -0.0823,0.0412 -0.19386,-0.0412 -0.27621,0 -0.11646,0.0582 -0.15975,0.21798 -0.27621,0.27621 -0.16471,0.0824 -0.42222,-0.1302 -0.55243,0 -0.13021,0.13021 0.13021,0.42222 0,0.55243 -0.0651,0.0651 -0.21111,-0.0651 -0.27621,0 -0.0651,0.0651 0.0412,0.19386 0,0.27621 -0.0582,0.11647 -0.21799,0.15976 -0.27622,0.27622 -0.0412,0.0823 0.0412,0.19386 0,0.27621 -0.0738,0.14752 -0.68322,0.68323 -0.82864,0.82864 -0.0921,0.0921 -0.15975,0.21799 -0.27621,0.27622 -0.1647,0.0824 -0.38773,-0.0824 -0.55243,0 -0.11646,0.0582 -0.15975,0.21798 -0.27621,0.27621 -0.0823,0.0412 -0.21111,-0.0651 -0.27622,0 -0.0651,0.0651 0.0412,0.19386 0,0.27621 -0.0582,0.11647 -0.21798,0.15976 -0.27621,0.27622 -0.042,0.0841 0,0.70424 0,0.82864 0,0.0921 -0.0651,0.21111 0,0.27621 0.13021,0.13021 0.42222,-0.13021 0.55243,0 0.0651,0.0651 0,0.18414 0,0.27621 0.0921,0 0.21111,-0.0651 0.27621,0 0.009,0.009 0,0.76166 0,0.82865 0,0.46035 0,0.92071 0,1.38106 0,0.18415 0,0.73657 0,0.55243 0,-0.18414 0,-0.73657 0,-0.55243 0,0.27622 -0.067,0.56068 0,0.82864 0.0316,0.12633 0.21798,0.15976 0.27621,0.27622 0.0954,0.19079 -0.0969,1.28411 0,1.38107 0.36829,0.36828 0.27622,-0.46036 0.27622,0.27621"
       id="path3949"
       style="fill:none;stroke:#6b4400;stroke-width:1px;stroke-linecap:butt;stroke-linejoin:miter;stroke-opacity:1" />
    <path
       d="m 214.61796,711.2384 c 0,0.0921 0.0412,0.19387 0,0.27622 -0.0582,0.11646 -0.21799,0.15975 -0.27622,0.27621 -0.0412,0.0824 0.0412,0.19386 0,0.27621 -0.0582,0.11647 -0.21798,0.15976 -0.27621,0.27622 -0.0823,0.1647 0.0824,0.38772 0,0.55243 -0.0582,0.11646 -0.21798,0.15975 -0.27621,0.27621 -0.11049,0.22097 0.11048,0.60767 0,0.82864 -0.0582,0.11646 -0.21799,0.15975 -0.27622,0.27621 -0.0412,0.0824 0.0651,0.21111 0,0.27622 -0.0651,0.0651 -0.21111,-0.0651 -0.27621,0 -0.13811,0.1381 0.13811,0.69053 0,0.82864 -0.0651,0.0651 -0.21111,-0.0651 -0.27621,0 -0.0651,0.0651 0,0.18414 0,0.27621 0,0.19212 0.0499,1.28118 0,1.38107 -0.0582,0.11646 -0.21799,0.15975 -0.27622,0.27621 -0.11048,0.22097 0.11049,0.60767 0,0.82864 -0.0582,0.11647 -0.21798,0.15976 -0.27621,0.27622 -0.0749,0.14984 0.0756,1.02927 0,1.10485 -0.0651,0.0651 -0.21111,-0.0651 -0.27622,0 -0.0111,0.0111 0,1.00342 0,1.10486 0,0.0921 0,0.18414 0,0.27621 0,0.0921 0.0921,0.27621 0,0.27621 -0.0921,0 0,-0.36828 0,-0.27621 0,0.18414 0,0.36828 0,0.55243 0,0.10143 -0.0111,1.09374 0,1.10485 0.13021,0.13021 0.42222,-0.13021 0.55243,0 0,0.73657 -0.0921,-0.0921 0.27622,0.27621 0.0651,0.0651 -0.0651,0.21111 0,0.27622 0.0651,0.0651 0.2111,-0.0651 0.27621,0 0.0651,0.0651 0,0.18414 0,0.27621 0,0.13024 -0.0125,1.36855 0,1.38107 0.13021,0.13021 0.55243,-0.18414 0.55243,0 0,0.0921 -0.36829,0 -0.27622,0 0.18415,0 0.36829,0 0.55243,0 0.0921,0 0.21111,-0.0651 0.27621,0 0.0651,0.0651 -0.0651,0.21111 0,0.27621 0.13811,0.13811 0.69054,-0.1381 0.82864,0 0.0651,0.0651 -0.0651,0.21111 0,0.27622 0.0651,0.0651 0.21111,-0.0651 0.27622,0 0.0651,0.0651 -0.0651,0.21111 0,0.27621 0.0651,0.0651 0.18414,0 0.27621,0 0.0921,0 0.18414,0 0.27621,0 0.27622,0 0.55243,0 0.82865,0 0.0921,0 0.27621,-0.0921 0.27621,0 0,0.0921 -0.27621,-0.0921 -0.27621,0 0,0.55189 0.66406,0.11164 0.82864,0.27621 0.0651,0.0651 -0.0651,0.21111 0,0.27622 0.1302,0.13021 0.38772,-0.0824 0.55242,0 0.91609,0.91608 -0.26041,-0.13021 0.55243,0.27621 0.11646,0.0582 0.15975,0.21798 0.27621,0.27621 0.0824,0.0412 0.21111,-0.0651 0.27622,0 0.0651,0.0651 -0.0651,0.21111 0,0.27622 0.0125,0.0125 1.25083,0 1.38107,0 0.27621,0 0.55242,0 0.82864,0 0.0921,0 0.27621,-0.0921 0.27621,0 0,0.0921 -0.27621,0.0921 -0.27621,0 0,-0.57477 0.38735,-0.11114 0.55242,-0.27622 0.13811,-0.1381 -0.1381,-0.69053 0,-0.82864 0.0665,-0.0665 1.03839,0.0665 1.10486,0 0,-0.73657 -0.0921,0.0921 0.27621,-0.27621 0.0651,-0.0651 -0.0651,-0.21111 0,-0.27621 0.13021,-0.13021 0.42222,0.13021 0.55243,0 0.13021,-0.13021 -0.13021,-0.42222 0,-0.55243 0.57149,-0.5715 -0.0223,0.87332 0.55243,-0.27621 0.0412,-0.0824 0,-0.18415 0,-0.27622 0,-0.0921 0,-0.18414 0,-0.27621 0,-0.46036 0,-0.92071 0,-1.38107"
       id="path3951"
       style="fill:none;stroke:#864f00;stroke-width:1px;stroke-linecap:butt;stroke-linejoin:miter;stroke-opacity:1" />
  </g>
  <g
     id="layer1"
     style="display:inline">
    <path
       d="m 255.77378,730.57335 c -21.54466,-36.73641 -5.24806,-29.00243 -11.60097,-43.91796 -6.35292,-14.91554 -19.88738,-8.83884 -22.09709,-22.09709 -2.20971,-13.25825 -20.43981,-24.03058 -13.81068,-27.06893 6.62913,-3.03835 13.53447,21.26845 32.04078,14.08689 18.50631,-7.18155 38.11747,-3.03835 38.94611,5.52427 0.82864,8.56263 -18.23009,10.77233 -13.81068,27.89758 4.41942,17.12524 37.84126,31.76456 23.20194,37.28883 -14.63932,5.52427 -1.93349,27.06893 -17.40145,17.95388 -15.46796,-9.11504 -15.46796,-9.39126 -15.46796,-9.66747 z"
       id="path3761"
       style="fill:#ff8200;fill-opacity:1;stroke:none" />
    <path
       d="m 137.83058,661.79618 c 0,0 -4.97185,-11.60097 20.99223,-13.25825 25.96408,-1.65728 13.25825,-18.50631 30.3835,-10.21991 17.12524,8.28641 19.61116,-13.81068 27.89757,-4.1432 8.28641,9.66748 12.70582,15.74418 7.18155,23.75437 -5.52427,8.01019 -3.03835,21.82087 -19.88738,20.16359 -16.84903,-1.65728 -10.77233,9.11505 -33.69806,2.48592 -22.92572,-6.62912 -36.7364,-5.24805 -32.86941,-18.78252 z"
       id="path3759"
       style="fill:#c15e00;fill-opacity:1;stroke:none" />
    <path
       d="m 157.18584,676.05217 c 7.98989,16.67992 25.66756,16.95613 25.66756,16.95613 0,0 12.42961,-4.41941 13.53446,1.10486 1.10486,5.52427 -1.93349,14.91553 -8.01019,17.40146 -6.0767,2.48592 3.86699,10.77233 -8.0102,12.98203 -11.87718,2.20971 -29.00242,13.25826 -41.98446,-1.10485 -12.98204,-14.36311 -19.33495,-38.6699 -4.14321,-44.7466 15.19175,-6.0767 23.47816,-2.76214 22.94604,-2.59303 z"
       id="path4652"
       style="fill:#00c500;fill-opacity:1;stroke:#000000;stroke-width:0;stroke-linecap:butt;stroke-linejoin:miter;stroke-miterlimit:4;stroke-opacity:1;stroke-dasharray:none" />
    <path
       d="m 193.87553,658.12597 c -25.40056,2.56088 -36.68969,17.9262 -36.68969,17.9262 0,0 -19.75599,25.60885 14.11142,20.48708 33.86741,-5.12177 4.47956,17.09756 4.47956,17.09756 0,0 -1.65728,21.31572 20.92099,16.19395 22.57828,-5.12177 22.57828,-5.12177 22.57828,-5.12177 0,0 31.04512,7.68266 47.97883,-10.24354 16.9337,-17.9262 -19.75599,-10.24354 -22.57827,-28.16974 -2.82229,-17.9262 -14.11142,-28.16974 -25.40056,-25.60886 -11.28914,2.56089 -25.13594,-2.56088 -25.40056,-2.56088 z"
       id="path5345"
       style="fill:#ae00ff;fill-opacity:1;stroke:#000000;stroke-width:0;stroke-linecap:butt;stroke-linejoin:miter;stroke-miterlimit:4;stroke-opacity:1;stroke-dasharray:none" />
    <path
       d="m 352.84628,307.4252 a 8.8388348,8.8388348 0 1 1 -17.67767,0 8.8388348,8.8388348 0 1 1 17.67767,0 z"
       transform="matrix(0.21368069,0,0,0.20366501,137.2914,642.00424)"
       id="path3673-1"
       style="fill:#ffffff;fill-opacity:1;stroke:#000000;stroke-width:5;stroke-miterlimit:4;stroke-opacity:1;stroke-dasharray:none" />
    <path
       d="m 352.84628,307.4252 a 8.8388348,8.8388348 0 1 1 -17.67767,0 8.8388348,8.8388348 0 1 1 17.67767,0 z"
       transform="matrix(0.21368069,0,0,0.20366501,144.36886,610.07634)"
       id="path3673"
       style="fill:#ffffff;fill-opacity:1;stroke:#000000;stroke-width:5;stroke-miterlimit:4;stroke-opacity:1;stroke-dasharray:none" />
    <path
       d="m 366.2813,361.51886 a 11.313708,11.313708 0 1 1 -22.62742,0 11.313708,11.313708 0 1 1 22.62742,0 z"
       transform="matrix(0.14570562,0,0,0.15107672,130.44207,624.58055)"
       id="path3687"
       style="fill:#000000;fill-opacity:1;stroke:#000000;stroke-width:5;stroke-miterlimit:4;stroke-opacity:1;stroke-dasharray:none" />
    <path
       d="M 350.72495,418.79449 A 9.1923885,9.1923885 0 0 1 332.3467,419.1407"
       transform="matrix(-0.22530814,0,0,-0.29251201,243.92191,805.94474)"
       id="path3709"
       style="fill:#000000;fill-opacity:1;stroke:#000000;stroke-width:5;stroke-miterlimit:4;stroke-opacity:1;stroke-dasharray:none" />
    <path
       d="M 350.72495,418.79449 A 9.1923885,9.1923885 0 0 1 332.3467,419.1407"
       transform="matrix(-0.22530814,0,0,-0.29251201,213.67652,814.09303)"
       id="path3709-9"
       style="fill:#000000;fill-opacity:1;stroke:#000000;stroke-width:5;stroke-miterlimit:4;stroke-opacity:1;stroke-dasharray:none;display:inline" />
    <path
       d="m 366.2813,361.51886 a 11.313708,11.313708 0 1 1 -22.62742,0 11.313708,11.313708 0 1 1 22.62742,0 z"
       transform="matrix(0.14570562,0,0,0.15107672,197.70009,657.44996)"
       id="path3687-3"
       style="fill:#000000;fill-opacity:1;stroke:#000000;stroke-width:5;stroke-miterlimit:4;stroke-opacity:1;stroke-dasharray:none;display:inline" />
    <path
       d="m 366.2813,361.51886 a 11.313708,11.313708 0 1 1 -22.62742,0 11.313708,11.313708 0 1 1 22.62742,0 z"
       transform="matrix(0.14570562,0,0,0.15107672,124.45972,646.86222)"
       id="path3687-4"
       style="fill:#000000;fill-opacity:1;stroke:#000000;stroke-width:5;stroke-miterlimit:4;stroke-opacity:1;stroke-dasharray:none;display:inline" />
    <path
       d="m 345.2119,569.97183 -23.81729,0 11.90864,-20.62637 11.90865,20.62637 z"
       transform="matrix(0.22601491,0,0,0.25358309,83.353197,568.4898)"
       id="path3881"
       style="fill:#000000;fill-opacity:1;stroke:#000000;stroke-width:3;stroke-miterlimit:4;stroke-opacity:1;stroke-dasharray:none" />
    <path
       d="m 345.2119,569.97183 -23.81729,0 11.90864,-20.62637 11.90865,20.62637 z"
       transform="matrix(0.22601491,0,0,0.25358309,122.16122,511.58979)"
       id="path3881-2"
       style="fill:#000000;fill-opacity:1;stroke:#000000;stroke-width:3;stroke-miterlimit:4;stroke-opacity:1;stroke-dasharray:none;display:inline" />
    <path
       d="m 345.2119,569.97183 -23.81729,0 11.90864,-20.62637 11.90865,20.62637 z"
       transform="matrix(0.22601491,0,0,0.25358309,173.81315,540.86843)"
       id="path3881-3"
       style="fill:#000000;fill-opacity:1;stroke:#000000;stroke-width:3;stroke-miterlimit:4;stroke-opacity:1;stroke-dasharray:none;display:inline" />
    <path
       d="m 220.14223,695.77044 c 6.62912,-3.59078 7.45776,0.27621 6.35291,2.20971 -1.10486,1.93349 -3.59078,5.52427 -5.80049,3.31456 -2.20971,-2.20971 0.27622,-5.52427 -0.55242,-5.52427 z"
       id="path3825"
       style="fill:#0000ff;fill-opacity:1;stroke:none" />
    <path
       d="m 190.86359,687.76024 c 2.20971,-8.56262 0,-12.70582 7.18155,-9.66747 7.18156,3.03835 11.60097,-11.32476 10.21991,-3.59078 -1.38107,7.73398 -3.59078,9.94369 -6.35292,11.87718 -2.76213,1.9335 -0.55242,8.28641 -3.59077,8.28641 -3.03835,0 -4.69563,2.76214 -7.45777,-6.90534 z"
       id="path3833"
       style="fill:#0000ff;fill-opacity:1;stroke:none" />
    <path
       d="m 156.06068,657.65296 c 2.76214,-2.76213 6.90534,-3.59077 6.35291,-1.93349 -0.55242,1.65728 1.10486,10.77233 -1.38107,7.45777 -2.48592,-3.31457 -4.97184,-0.82864 -4.97184,-3.31457 0,-2.48592 0,-2.76213 0,-2.20971 z"
       id="path3835"
       style="fill:#0000ff;fill-opacity:1;stroke:none" />
    <path
       d="m 212.13204,651.02384 c 3.03835,-3.86699 5.24806,-5.24806 5.52427,-2.76214 0.27622,2.48592 0.27622,8.0102 -1.65728,6.62913 -1.93349,-1.38107 -3.86699,-3.59078 -3.86699,-3.86699 z"
       id="path3837"
       style="fill:#0000ff;fill-opacity:1;stroke:none" />
    <path
       d="m 135.89709,697.70394 c -5.52428,20.71602 3.86699,21.82087 10.77233,26.5165 6.90534,4.69563 8.01019,4.69563 6.62912,-0.55243 -1.38107,-5.24805 -6.35291,-5.52427 -9.11505,-6.35291 -2.76213,-0.82864 -6.35291,-2.48592 -5.80048,-5.52427 0.55243,-3.03835 -1.9335,-2.20971 0.82864,-3.86699 2.76213,-1.65728 6.0767,1.93349 1.65728,-3.03835 -4.41942,-4.97184 -4.69563,-7.18155 -4.97184,-7.18155 z"
       id="path3841"
       style="fill:#0000ff;fill-opacity:1;stroke:none" />
    <path
       d="m 366.2813,361.51886 a 11.313708,11.313708 0 1 1 -22.62742,0 11.313708,11.313708 0 1 1 22.62742,0 z"
       transform="matrix(0.14570562,0,0,0.15107672,202.11951,607.73152)"
       id="path3687-3-2"
       style="fill:#000000;fill-opacity:1;stroke:#000000;stroke-width:5;stroke-miterlimit:4;stroke-opacity:1;stroke-dasharray:none;display:inline" />
    <path
       d="m 366.2813,361.51886 a 11.313708,11.313708 0 1 1 -22.62742,0 11.313708,11.313708 0 1 1 22.62742,0 z"
       transform="matrix(0.14570562,0,0,0.15107672,124.22728,601.10239)"
       id="path3687-3-3"
       style="fill:#000000;fill-opacity:1;stroke:#000000;stroke-width:5;stroke-miterlimit:4;stroke-opacity:1;stroke-dasharray:none;display:inline" />
    <path
       d="m 352.84628,307.4252 a 8.8388348,8.8388348 0 1 1 -17.67767,0 8.8388348,8.8388348 0 1 1 17.67767,0 z"
       transform="matrix(0.21368069,0,0,0.20366501,73.259957,637.56678)"
       id="path3673-1-4"
       style="fill:#ffffff;fill-opacity:1;stroke:#000000;stroke-width:5;stroke-miterlimit:4;stroke-opacity:1;stroke-dasharray:none;display:inline" />
    <path
       d="M 350.72495,418.79449 A 9.1923885,9.1923885 0 0 1 332.3467,419.1407"
       transform="matrix(-0.22530814,0,0,-0.29251201,272.51002,826.79885)"
       id="path3709-7"
       style="fill:#000000;fill-opacity:1;stroke:#000000;stroke-width:5;stroke-miterlimit:4;stroke-opacity:1;stroke-dasharray:none;display:inline" />
    <path
       d="M 350.72495,418.79449 A 9.1923885,9.1923885 0 0 1 332.3467,419.1407"
       transform="matrix(-0.22530814,0,0,-0.29251201,305.37943,838.39983)"
       id="path3709-75"
       style="fill:#000000;fill-opacity:1;stroke:#000000;stroke-width:5;stroke-miterlimit:4;stroke-opacity:1;stroke-dasharray:none;display:inline" />
  </g>
</svg>
